<svg id="Capa_1" data-name="Capa 1" xmlns="http://www.w3.org/2000/svg" viewBox="0 0 512 512"><defs><style>.cls-1{fill:#3fbbcd;}</style></defs><title>PIEZAS 1</title><path class="cls-1" d="M271.86,239.75c-57.09,12.48-85.62-14.1-87.1-15.53a18.59,18.59,0,0,0-26.4,26.19c1.43,1.44,30,29.83,84.29,29.83a173.57,173.57,0,0,0,37.16-4.17,18.59,18.59,0,0,0-7.95-36.32Z"/><path class="cls-1" d="M490,362.56l-78.32-31.63a22.87,22.87,0,0,0-8.52-1.66h-20v-4.34a13.34,13.34,0,0,0-1.53-6.13L455.46,339a22.14,22.14,0,0,0,11.67-42.72l-97.28-26.55a22.16,22.16,0,0,0-5.93-.78l-66.3.33a25.29,25.29,0,0,1-17.86,14.87,155.12,155.12,0,0,1-33.09,3.61c-53.84,0-90.51-28.78-92-30a25.28,25.28,0,0,1,15.78-45,25.38,25.38,0,0,1,15.66,5.45c.74.57,15.13,11.57,38,16.57l-40.84-26.33a17.62,17.62,0,0,1-2.69-2.56c-4.32-3.71-11.67-13-17.54-20.47-2.19-2.75-4.19-5.29-5.86-7.32-5.88-6.82-7.92-17-4.94-24.81a17,17,0,0,1,8.64-9.37h41V121.37h-11.6V23.64H39.48v97.73H28.92v10.55c-8.92.78-16.05,4.85-18,10.9-1,3-1.78,10.9,11.43,18.19,4.36,2.3,9.84,3.21,15.14,4.09,6.44,1.07,13.09,2.18,17.18,5.61,3.14,2.9,4.87,6.89,6.51,10.74.32.74.64,1.42,1,2.13a41.8,41.8,0,1,0,5.95-15,42.91,42.91,0,0,0-3.69,7.15,28.3,28.3,0,0,0-6.24-9c-5.29-4.43-12.65-5.67-19.79-6.85-5.13-.86-10-1.65-13.53-3.53-6.86-3.79-10.11-8.16-8.9-12,1.09-3.44,6-6.53,13-7.24v6.66H152.06a22.33,22.33,0,0,0-4.76,7.49c-3.64,9.52-1.23,21.91,5.83,30.08,1.61,2,3.59,4.48,5.74,7.2,4,5.08,8.65,11,12.7,15.51-11.44-1.46-23.23,3.93-31,11.26a33.37,33.37,0,0,0-5.95,7,60,60,0,0,0-4.18,8.58l-.06.11c-4.73,13.7-3.21,32.49,11.24,41.82l77.58,50a27.16,27.16,0,0,0,2.8,1.6c0,.15-.05.29-.05.44v4.33H199.92L96.72,257.64a12.68,12.68,0,0,0,1.42-1.82A12.91,12.91,0,0,0,94,238L58.91,216a12.9,12.9,0,0,0-17.5,3.68,22.73,22.73,0,0,0-22.94,39.11l161.34,112a22.83,22.83,0,0,0,13,4.06h30.07a13.55,13.55,0,0,0,12.68,8.86h28.61V490.62H250.23a10.92,10.92,0,0,0,0,21.84H355.08a10.92,10.92,0,0,0,0-21.84H341V383.69H369.6a13.57,13.57,0,0,0,12.68-8.86h16.4l74.21,30A22.78,22.78,0,1,0,490,362.56ZM52.08,36.24H177.61v80.93H52.08Z"/><path class="cls-1" d="M177.85,181.9a17.72,17.72,0,0,0,17.71,17.71c41.42,0,64.37-11.07,79.34-24.19v28.72c-1.34,5.76-3.79,16.47-6.69,29.32,1.12-.22,2.21-.39,3.33-.63a25.35,25.35,0,0,1,30.2,19.35,25.17,25.17,0,0,1,.17,10l63.09-.32a28.58,28.58,0,0,1,7.74,1l9.25,2.53c-5.25-25.65-11.23-50.89-13.68-61.11V170.14c6.78,14.1,11,34.32,10.56,65.3a17.72,17.72,0,0,0,17.47,18h.25a17.71,17.71,0,0,0,17.71-17.48c1.18-84.21-29.83-119.11-81.56-138.71a.28.28,0,0,0-.11,0l-11,11.57L310.24,97.31c-6.34,1.55-18.24,8.37-18.38,8.46-12,7.38-19.55,17.52-26.15,26.46-12.68,17.15-23.64,32-70.15,32A17.72,17.72,0,0,0,177.85,181.9Z"/><path class="cls-1" d="M322.27,93.72A42.77,42.77,0,0,0,365.05,51,42.26,42.26,0,0,0,356,24.84H342.14V18.35h7.6a42.56,42.56,0,0,0-8.7-5.74,20.56,20.56,0,0,0-37.49,0,43,43,0,0,0-8.73,5.77h8.68v6.49H288.58a42.62,42.62,0,0,0,33.69,68.88Zm0-84.23a11.62,11.62,0,1,1-11.59,11.62A11.62,11.62,0,0,1,322.28,9.49Z"/><path class="cls-1" d="M126.27,51.05a15,15,0,0,0-10.9,4.7A15,15,0,0,0,89.45,66.09c0,20.85,25.92,34.07,25.92,34.07S141.32,87,141.32,66.09A15.06,15.06,0,0,0,126.27,51.05Z"/></svg>